<?xml version="1.0" standalone="no"?>
<!DOCTYPE svg PUBLIC "-//W3C//DTD SVG 20010904//EN"
 "http://www.w3.org/TR/2001/REC-SVG-20010904/DTD/svg10.dtd">
<svg version="1.0" xmlns="http://www.w3.org/2000/svg"
 width="512.000000pt" height="512.000000pt" viewBox="0 0 512.000000 512.000000"
 preserveAspectRatio="xMidYMid meet">
<metadata>
Created by potrace 1.11, written by Peter Selinger 2001-2013
</metadata>
<g transform="translate(0.000000,512.000000) scale(0.100000,-0.100000)"
fill="#000000" stroke="none">
<path d="M852 4850 c-83 -56 -145 -123 -184 -199 -18 -36 -32 -69 -30 -74 1
-5 -1 -14 -6 -21 -9 -12 -8 -115 2 -161 10 -43 14 -60 16 -62 2 -2 3 -6 4 -10
3 -9 55 -116 71 -145 5 -10 13 -18 17 -18 5 0 8 -7 8 -15 0 -8 5 -15 10 -15 6
0 10 -4 10 -9 0 -5 20 -30 44 -57 25 -26 43 -51 40 -55 -2 -4 1 -11 7 -15 8
-5 9 -3 4 6 -5 7 33 -28 83 -78 51 -51 94 -92 97 -92 2 0 17 -12 33 -27 44
-43 106 -93 115 -93 5 0 5 -5 1 -12 -4 -6 -3 -8 3 -5 5 3 20 -4 34 -16 13 -12
51 -42 84 -66 33 -25 62 -48 63 -53 2 -4 8 -8 13 -8 6 0 15 -5 22 -10 24 -21
148 -110 152 -110 9 0 79 -51 92 -68 8 -9 11 -10 7 -2 -5 8 4 5 20 -8 16 -12
32 -22 36 -22 4 0 13 26 20 58 7 31 15 61 18 67 9 14 12 55 4 53 -11 -3 -92
53 -92 64 0 5 -4 7 -8 4 -5 -3 -18 3 -28 12 -10 10 -34 27 -51 37 -18 11 -33
23 -33 27 0 4 -5 8 -11 8 -6 0 -25 11 -43 25 -17 14 -41 33 -52 43 -12 9 -32
24 -44 32 -31 20 -94 73 -98 83 -2 4 -10 7 -18 7 -8 0 -14 3 -14 8 0 4 -14 16
-30 27 -16 11 -30 26 -30 33 0 7 -4 11 -8 8 -10 -6 -198 173 -194 185 1 5 -2
9 -8 9 -14 0 -56 48 -104 120 -68 104 -77 120 -71 130 3 6 2 10 -4 10 -10 0
-21 41 -27 95 -6 55 24 121 81 178 29 30 67 60 83 68 54 24 70 99 30 137 -40
37 -71 35 -136 -8z"/>
<path d="M4154 4878 c-50 -23 -58 -97 -15 -136 38 -36 59 -52 66 -52 12 0 65
-54 65 -67 0 -7 4 -13 10 -13 18 0 42 -63 45 -117 1 -29 -1 -53 -6 -53 -4 0
-6 -9 -4 -20 2 -11 0 -20 -6 -20 -5 0 -8 -3 -7 -7 7 -26 -67 -151 -133 -227
-85 -99 -259 -261 -374 -349 -5 -4 -26 -21 -45 -37 -19 -16 -38 -30 -42 -30
-4 0 -22 -13 -40 -28 -18 -16 -62 -49 -98 -73 -36 -24 -68 -48 -72 -54 -4 -5
-8 -6 -8 -1 0 4 -9 -2 -21 -15 -11 -13 -17 -17 -13 -9 4 9 -1 7 -14 -5 -34
-32 -52 -46 -52 -40 0 3 -9 -2 -19 -12 -19 -18 -22 -37 -9 -59 7 -10 14 -40
25 -96 5 -24 33 -41 33 -20 0 4 9 12 19 17 47 24 355 243 359 256 2 5 8 9 13
9 5 0 17 6 26 14 10 8 37 30 59 48 91 72 127 103 139 115 7 6 15 9 19 6 3 -4
6 1 6 10 0 10 4 17 10 17 5 0 50 40 100 89 50 49 87 85 84 79 -4 -7 -2 -8 5
-4 6 4 9 11 6 16 -3 4 7 19 23 32 15 12 29 28 30 33 2 6 14 22 28 37 13 15 24
32 24 37 0 5 4 11 8 13 18 7 94 174 106 231 15 75 14 117 -7 212 -7 28 -71
125 -109 164 -52 53 -134 109 -168 114 -14 3 -35 0 -46 -5z"/>
<path d="M2320 4373 c-39 -16 -40 -23 -40 -328 l0 -297 -48 -56 c-220 -257
-442 -619 -552 -897 -18 -44 -33 -87 -35 -95 -2 -8 -13 -44 -24 -79 -12 -35
-23 -74 -25 -85 -2 -12 -12 -61 -21 -111 -10 -49 -19 -100 -21 -113 -14 -115
-17 -160 -19 -247 -1 -101 8 -176 25 -207 6 -10 10 -26 10 -35 0 -29 96 -213
144 -276 24 -33 68 -84 98 -115 56 -59 187 -162 206 -162 5 0 12 -3 14 -7 11
-27 239 -112 338 -128 25 -4 54 -9 65 -11 64 -13 277 -3 360 17 22 5 48 11 58
14 104 24 302 130 392 210 17 15 35 30 40 33 22 14 141 159 160 195 11 20 23
37 27 37 5 0 8 4 8 10 0 5 11 33 24 62 25 55 54 139 61 180 3 12 9 46 14 73 5
28 9 106 9 175 0 147 -11 234 -44 365 -9 33 -17 67 -19 75 -19 86 -102 296
-172 434 -36 72 -37 73 -92 167 -28 48 -51 91 -51 97 0 6 -4 12 -8 14 -5 2
-37 45 -71 96 -50 74 -128 181 -203 277 -4 6 -28 33 -52 60 l-45 50 -1 296 0
296 -27 12 c-29 13 -82 -1 -84 -23 -5 -35 -8 -120 -8 -271 l-1 -169 -37 36
c-51 48 -68 54 -141 49 -13 0 -45 -22 -72 -47 l-50 -47 -1 54 c0 30 0 127 1
217 1 160 1 162 -24 187 -25 25 -38 28 -66 18z m855 -2074 c33 -99 36 -195 10
-333 -10 -51 -52 -142 -93 -202 -84 -122 -216 -219 -356 -259 -115 -33 -297
-24 -400 20 l-40 17 85 28 c263 86 469 240 616 460 28 42 96 170 113 215 9 22
22 57 25 65 6 17 18 40 20 40 2 0 11 -23 20 -51z"/>
<path d="M475 3821 c-13 -8 -30 -28 -36 -43 -16 -38 -13 -130 6 -173 8 -20 15
-39 16 -43 4 -17 53 -88 66 -95 7 -5 11 -12 8 -18 -4 -5 -2 -9 2 -9 5 0 23
-12 40 -27 56 -50 85 -73 88 -73 8 0 100 -64 107 -74 4 -6 8 -7 8 -3 0 7 57
-20 70 -33 3 -3 39 -21 80 -40 41 -19 77 -38 78 -43 2 -4 8 -5 13 -1 5 3 9 0
9 -6 0 -6 4 -9 8 -6 4 2 29 -6 55 -19 26 -14 47 -22 47 -19 0 4 10 0 23 -8 12
-8 46 -23 75 -33 28 -11 52 -23 52 -28 0 -4 4 -6 8 -3 4 2 21 -1 37 -8 56 -25
119 -51 125 -52 3 0 16 -5 30 -11 108 -46 130 -53 130 -38 0 8 5 15 12 15 6 0
9 3 5 6 -3 3 3 31 14 61 10 31 19 58 19 59 0 3 -90 47 -100 49 -11 2 -106 39
-115 45 -5 4 -40 17 -77 30 -38 13 -68 27 -68 30 0 4 -6 7 -12 7 -7 0 -31 8
-53 17 -71 31 -100 43 -105 44 -3 0 -38 17 -77 36 -40 20 -77 36 -83 36 -6 0
-9 4 -6 8 2 4 -5 9 -16 9 -12 1 -25 8 -29 15 -5 7 -9 9 -9 5 0 -5 -12 1 -26
12 -15 12 -30 21 -34 21 -17 0 -109 67 -102 74 4 4 2 6 -5 4 -18 -5 -102 72
-131 121 -21 35 -25 56 -24 104 1 54 -2 62 -27 86 -32 30 -60 34 -96 12z"/>
<path d="M4571 3822 c-40 -19 -52 -40 -50 -94 1 -24 -1 -52 -4 -64 -8 -31 -43
-85 -50 -77 -4 3 -7 0 -7 -8 0 -14 -62 -72 -99 -93 -9 -5 -18 -12 -21 -15 -27
-34 -380 -212 -380 -193 0 4 -4 2 -8 -4 -6 -9 -182 -89 -217 -98 -9 -3 -24 -8
-65 -24 -8 -3 -17 -6 -20 -7 -34 -12 -100 -40 -142 -62 -14 -7 -33 -13 -41
-13 -9 0 -18 -3 -21 -8 -4 -7 46 -148 57 -158 2 -2 17 2 33 11 16 8 35 15 42
15 7 0 20 4 30 9 59 28 217 96 247 105 6 2 24 8 40 15 17 6 34 11 39 10 5 0
12 4 15 10 4 6 16 12 26 14 11 2 90 37 175 79 85 41 160 76 165 79 6 2 18 10
28 19 10 8 21 15 25 14 4 0 12 3 17 8 6 4 43 33 83 63 97 74 151 132 188 202
25 48 30 71 32 138 3 71 0 83 -20 106 -30 34 -59 40 -97 21z"/>
<path d="M1486 2562 c-2 -1 -19 -4 -37 -6 -19 -2 -63 -9 -99 -15 -36 -6 -81
-12 -100 -15 -63 -8 -115 -16 -140 -22 -41 -10 -73 -15 -105 -19 -16 -1 -94
-19 -171 -39 -190 -47 -324 -101 -420 -167 -23 -16 -45 -25 -49 -21 -3 4 -5 3
-3 -3 2 -5 0 -11 -4 -13 -5 -1 -21 -16 -36 -32 -16 -16 -33 -26 -37 -22 -5 4
-5 2 -1 -5 3 -6 -4 -19 -16 -27 -12 -9 -18 -16 -13 -16 6 0 5 -4 -1 -8 -10 -7
-67 -91 -69 -102 -1 -3 -10 -25 -22 -50 -77 -168 -103 -254 -103 -346 0 -84
62 -128 126 -87 31 19 33 25 40 88 6 56 37 165 47 165 4 0 6 4 3 8 -3 5 17 53
43 108 55 115 113 181 206 235 54 31 121 63 135 64 3 0 10 3 15 6 34 21 233
75 347 94 18 3 40 8 49 11 9 2 34 7 55 9 20 3 51 8 68 10 17 3 56 10 86 15 30
5 73 12 95 16 22 3 55 7 72 8 40 2 53 14 59 55 2 17 6 44 8 61 3 16 7 38 11
49 5 16 2 19 -15 18 -12 -1 -22 -3 -24 -5z"/>
<path d="M3596 2541 c3 -14 11 -53 16 -86 6 -33 11 -61 12 -62 1 -1 35 -6 76
-12 41 -6 86 -13 100 -16 14 -3 46 -7 71 -10 25 -3 56 -8 70 -10 13 -3 50 -9
81 -15 169 -30 317 -66 403 -99 69 -27 185 -85 185 -93 0 -4 5 -8 11 -8 13 0
90 -62 84 -68 -2 -3 6 -13 19 -23 26 -21 89 -133 79 -143 -3 -3 -2 -6 4 -6 6
0 25 -39 42 -86 32 -87 39 -118 45 -188 2 -28 11 -46 30 -63 42 -36 112 -28
122 13 3 13 9 24 13 24 8 0 -3 112 -16 165 -4 17 -7 32 -8 35 0 3 -3 10 -6 15
-9 15 -43 119 -40 124 2 2 -2 7 -7 10 -12 7 -52 90 -52 107 0 7 -3 14 -7 16
-5 2 -21 22 -37 46 -25 37 -46 59 -137 145 -11 9 -21 17 -24 17 -6 0 -108 62
-115 69 -3 4 -13 7 -24 9 -10 2 -44 15 -75 30 -31 14 -59 25 -64 24 -4 -1 -23
4 -42 12 -19 8 -35 13 -35 11 0 -3 -12 0 -27 6 -16 6 -37 13 -48 14 -11 2 -40
8 -65 15 -25 7 -54 14 -65 16 -67 11 -95 16 -135 24 -25 5 -65 12 -90 15 -25
3 -70 10 -100 15 -30 6 -77 12 -105 15 -53 6 -90 12 -90 15 0 1 -12 3 -27 4
-25 3 -27 0 -22 -23z"/>
<path d="M1446 1955 c-9 -9 -16 -13 -16 -8 0 4 -7 -3 -16 -15 -8 -12 -21 -22
-28 -22 -8 0 -16 -7 -20 -15 -3 -8 -11 -15 -18 -15 -7 0 -19 -9 -26 -21 -7
-12 -15 -19 -18 -17 -5 6 -128 -107 -233 -214 -114 -116 -152 -158 -143 -158
3 0 -9 -14 -28 -32 -19 -17 -33 -33 -31 -36 1 -2 -6 -14 -17 -27 -11 -13 -18
-26 -15 -29 4 -3 1 -6 -5 -6 -7 0 -12 -7 -12 -15 0 -8 -4 -15 -10 -15 -5 0
-10 -4 -10 -9 0 -5 -17 -40 -38 -78 -43 -75 -122 -264 -127 -303 -2 -15 -10
-53 -21 -100 -11 -45 -13 -334 -2 -385 5 -27 11 -59 12 -70 6 -52 19 -85 44
-107 37 -33 78 -29 113 9 28 32 28 43 10 118 -22 87 -30 241 -18 347 7 63 38
200 46 208 4 3 7 14 9 25 10 67 153 312 229 393 17 18 32 36 34 40 4 16 49 62
60 62 7 0 10 3 6 6 -9 9 150 162 258 249 67 54 74 63 70 87 -3 13 -7 54 -10
92 -2 38 -6 71 -9 73 -2 2 -11 -3 -20 -12z"/>
<path d="M3644 1923 c-1 -27 -3 -75 -5 -108 -3 -42 0 -59 8 -58 7 2 35 -20 63
-47 28 -28 55 -50 59 -50 11 0 220 -208 266 -265 22 -28 50 -61 62 -75 13 -14
23 -30 23 -37 0 -6 3 -13 8 -15 23 -10 120 -184 158 -284 65 -173 83 -392 48
-568 -2 -12 -7 -34 -10 -50 -2 -16 -7 -33 -10 -37 -3 -5 2 -21 10 -37 8 -16
13 -32 11 -36 -3 -3 -2 -4 1 -2 3 2 16 -2 30 -9 46 -24 109 11 119 66 5 31 12
67 20 99 6 28 18 191 18 230 -2 67 -16 187 -24 203 -6 9 -8 17 -5 17 2 0 0 16
-6 36 -5 20 -11 46 -14 58 -12 65 -101 253 -171 363 -18 29 -33 55 -33 58 0 2
-10 15 -23 28 -12 13 -33 38 -47 56 -63 82 -207 233 -285 300 -22 18 -34 30
-26 26 9 -6 12 -4 7 4 -4 6 -11 9 -15 7 -4 -3 -28 15 -54 39 -26 24 -47 42
-47 39 0 -3 -18 11 -54 41 -17 15 -75 55 -78 55 -2 0 -4 -21 -4 -47z"/>
</g>
</svg>
